<mxfile host="app.diagrams.net" modified="2023-05-03T13:01:01.075Z" agent="Mozilla/5.0 (X11; Linux x86_64) AppleWebKit/537.36 (KHTML, like Gecko) Chrome/104.0.5112.102 Safari/537.36" version="21.2.7" etag="QqSBL2XyoXS4zETCIBI4" type="github">
  <diagram name="Page-1" id="bXGjzltSg83yUvto27Se">
    <mxGraphModel>
      <root>
        <mxCell id="0" />
        <mxCell id="1" parent="0" />
      </root>
    </mxGraphModel>
  </diagram>
</mxfile>
